<?xml version="1.0" encoding="utf-8"?>
<!-- Generator: Adobe Illustrator 21.0.0, SVG Export Plug-In . SVG Version: 6.00 Build 0)  -->
<svg version="1.1" id="Layer_1" xmlns="http://www.w3.org/2000/svg" xmlns:xlink="http://www.w3.org/1999/xlink" x="0px" y="0px"
	 viewBox="0 0 512 512" style="enable-background:new 0 0 512 512;" xml:space="preserve">
<style type="text/css">
	.st0{fill:url(#SVGID_1_);}
	.st1{clip-path:url(#SVGID_3_);}
	.st2{clip-path:url(#SVGID_5_);}
	.st3{fill:url(#SVGID_6_);}
	.st4{fill:#0E5ADE;}
	.st5{fill:url(#SVGID_7_);}
	.st6{fill:#FFFFFF;}
	.st7{fill:#000100;}
	.st8{opacity:0.9;fill:#FFFFFF;}
	.st9{fill:url(#SVGID_8_);}
	.st10{fill:none;}
</style>
<g>
	<linearGradient id="SVGID_1_" gradientUnits="userSpaceOnUse" x1="54.2811" y1="458.7361" x2="459.7533" y2="53.2639">
		<stop  offset="0" style="stop-color:#05C3DD"/>
		<stop  offset="1" style="stop-color:#FFFFFF"/>
	</linearGradient>
	<path class="st0" d="M332.4,512H181.6C82.9,512,2,431.2,2,332.4V179.6C2,80.8,82.9,0,181.6,0h150.8C431.2,0,512,80.8,512,179.6
		v152.8C512,431.2,431.2,512,332.4,512z"/>
	<g>
		<defs>
			<path id="SVGID_2_" d="M330.4,511.7H179.5C80.8,511.7,0,430.9,0,332.2V179.5C0,80.8,80.8,0,179.5,0h182.2
				C460.4,0,510,80.8,510,179.5v152.6C510,430.9,429.2,511.7,330.4,511.7z"/>
		</defs>
		<clipPath id="SVGID_3_">
			<use xlink:href="#SVGID_2_"  style="overflow:visible;"/>
		</clipPath>
		<g class="st1">
			<defs>
				<path id="SVGID_4_" d="M408.6,527.4H-38.2c-56,0-101.4-45.4-101.4-101.4V97.3c0-56,45.4-101.4,101.4-101.4h446.8
					c56,0,101.4,45.4,101.4,101.4V426C510,482,464.6,527.4,408.6,527.4z"/>
			</defs>
			<clipPath id="SVGID_5_">
				<use xlink:href="#SVGID_4_"  style="overflow:visible;"/>
			</clipPath>
			<g class="st2">
				<linearGradient id="SVGID_6_" gradientUnits="userSpaceOnUse" x1="213.6365" y1="166.8224" x2="306.2572" y2="74.2016">
					<stop  offset="0.1535" style="stop-color:#004680"/>
					<stop  offset="0.9136" style="stop-color:#161C2E"/>
				</linearGradient>
				<path class="st3" d="M271.9,160h-65.1V98.6h123.9l0,0C330.7,132.5,304.4,160,271.9,160z"/>
				<path class="st4" d="M397,87.8l0.2,60.6c0,1-1.5,1.1-1.6,0.1c-5.6-28.4-31.5-49.9-60.3-49.9H171.6V0c11.3-2.7,23.1-4.1,35.2-4.1
					h132.7C388.2-4.1,396.6,42.9,397,87.8z"/>
				<linearGradient id="SVGID_7_" gradientUnits="userSpaceOnUse" x1="-106.34" y1="570.4733" x2="337.523" y2="126.6103">
					<stop  offset="0" style="stop-color:#84CB6A"/>
					<stop  offset="1" style="stop-color:#05C3DD"/>
				</linearGradient>
				<path class="st5" d="M62.1,33.8c-0.5,0.3-1.1,0.6-1.6,0.9c-0.2,0.1-0.4,0.3-0.7,0.4C37.3,48,16.5,63.8-2.2,82
					c-49.7,48.3-84.1,113.7-94.9,187.3c-2.4,16.1-12.7,32.7-12.7,49.5c0,0,0,0,0,0v0c0,3.4,0.1,6.8,0.2,10.2c0,1,0.1,2,0.1,3
					c0.1,2.5,0.2,5.1,0.4,7.6c0.1,0.9,0.1,1.9,0.2,2.8c0.2,3.3,0.5,6.7,0.8,10c0,0.4,0.1,0.8,0.1,1.2c0.3,3.1,0.7,6.2,1.1,9.3
					c0,0.3,0.1,0.5,0.1,0.8c0,0,0,0,0,0c20.8,157.2-154.2,249.9,313.7,278.1V85.6V-4.1C154.5-4.1,105.2,9.6,62.1,33.8z"/>
				<path class="st6" d="M206.8-4.1v195.3c-51.7,0-93.6-43.7-93.6-97.7c0-28.3,11.5-53.8,30-71.6C159.9,5.7,182.2-4.1,206.8-4.1z"/>
				<g>
					<path class="st6" d="M136.7,42.7c-3.2,12.5,4,25.4,16,28.7c12,3.3,24.3-4.1,27.5-16.7c3.2-12.5-4-25.4-16-28.7
						C152.2,22.7,139.9,30.2,136.7,42.7z"/>
					<path class="st7" d="M143.5,44.6c-2.2,8.6,2.7,17.5,11,19.7c8.3,2.3,16.7-2.9,18.9-11.5c2.2-8.6-2.7-17.5-11-19.7
						C154.2,30.9,145.7,36,143.5,44.6z"/>
					<path class="st8" d="M147.1,53.9c-0.5,1.9,0.6,3.9,2.5,4.4c1.8,0.5,3.7-0.6,4.2-2.6c0.5-1.9-0.6-3.9-2.5-4.4
						C149.5,50.8,147.6,52,147.1,53.9z"/>
				</g>
				<linearGradient id="SVGID_8_" gradientUnits="userSpaceOnUse" x1="97.5817" y1="531.5035" x2="371.6151" y2="373.2903">
					<stop  offset="0" style="stop-color:#0E5ADE"/>
					<stop  offset="1" style="stop-color:#05C3DD"/>
				</linearGradient>
				<path class="st9" d="M371.3,527.5c0.1-0.6,0.2-1.2,0.4-1.9c0.3-1.6,0.6-3.3,0.9-4.9c0.1-0.8,0.3-1.6,0.4-2.4
					c0.3-1.5,0.5-3,0.7-4.5c0.1-0.8,0.3-1.7,0.4-2.5c0.2-1.5,0.4-2.9,0.6-4.4c0.1-0.8,0.2-1.7,0.3-2.5c0.2-1.5,0.4-3,0.6-4.6
					c0.1-0.8,0.2-1.6,0.3-2.4c0.2-1.7,0.3-3.4,0.5-5.1c0.1-0.6,0.1-1.3,0.2-1.9c0.2-2.3,0.4-4.7,0.5-7c0-0.2,0-0.5,0-0.7
					c0.1-2.1,0.2-4.2,0.3-6.3c0-0.8,0-1.6,0.1-2.4c0-1.5,0.1-3.1,0.1-4.7c0-0.9,0-1.9,0-2.8c0-1.4,0-2.9,0-4.3c0-1,0-1.9,0-2.9
					c0-1.4-0.1-2.9-0.1-4.3c0-1-0.1-1.9-0.1-2.9c-0.1-1.6-0.2-3.1-0.3-4.7c0-0.8-0.1-1.6-0.1-2.5c-0.2-2.4-0.4-4.8-0.6-7.2
					c-0.2-2.5-0.5-5-0.8-7.5c-0.1-0.9-0.2-1.8-0.4-2.7c-0.2-1.6-0.4-3.2-0.6-4.7c-0.2-1-0.3-2-0.5-3.1c-0.2-1.4-0.4-2.9-0.7-4.3
					c-0.2-1.1-0.4-2.2-0.6-3.3c-0.3-1.3-0.5-2.7-0.8-4c-0.2-1.1-0.5-2.3-0.7-3.4c-0.3-1.3-0.5-2.6-0.8-3.8c-0.3-1.1-0.5-2.3-0.8-3.4
					c-0.3-1.2-0.6-2.5-0.9-3.7c-0.3-1.2-0.6-2.3-0.9-3.4c-0.3-1.2-0.6-2.4-1-3.6c-0.3-1.2-0.7-2.3-1-3.4c-0.3-1.2-0.7-2.4-1-3.5
					c-0.4-1.2-0.7-2.3-1.1-3.4c-0.4-1.1-0.7-2.3-1.1-3.4c-0.4-1.2-0.8-2.3-1.2-3.4c-0.4-1.1-0.8-2.2-1.2-3.4
					c-0.4-1.1-0.8-2.3-1.2-3.4c-0.4-1.1-0.8-2.2-1.2-3.3c-0.4-1.1-0.9-2.3-1.3-3.4c-0.4-1.1-0.8-2.2-1.3-3.3
					c-0.4-1.1-0.9-2.2-1.4-3.4c-0.4-1.1-0.9-2.1-1.3-3.2c-0.5-1.1-1-2.2-1.4-3.3c-0.5-1.1-0.9-2.1-1.4-3.2c-0.5-1.1-1-2.2-1.5-3.3
					c-0.5-1-0.9-2.1-1.4-3.1c-0.5-1.1-1-2.2-1.6-3.3c-0.5-1-1-2-1.5-3c-0.5-1.1-1.1-2.1-1.6-3.2c-0.5-1-1-2-1.5-3
					c-0.5-1.1-1.1-2.1-1.6-3.2c-0.5-1-1-2-1.6-3c-0.6-1-1.1-2.1-1.7-3.1c-0.5-1-1.1-1.9-1.6-2.9c-0.6-1-1.2-2.1-1.7-3.1
					c-0.5-0.9-1.1-1.9-1.6-2.8c-0.6-1-1.2-2-1.8-3c-0.6-0.9-1.1-1.9-1.7-2.8c-0.6-1-1.2-2-1.8-3c-0.6-0.9-1.1-1.9-1.7-2.8
					c-0.6-1-1.2-1.9-1.8-2.9c-0.6-0.9-1.2-1.8-1.7-2.7c-0.6-1-1.2-1.9-1.9-2.9c-0.6-0.9-1.2-1.8-1.7-2.7c-0.6-0.9-1.3-1.9-1.9-2.8
					c-0.6-0.9-1.2-1.8-1.8-2.6c-0.6-0.9-1.3-1.8-1.9-2.8c-0.6-0.9-1.2-1.7-1.8-2.6c-0.6-0.9-1.3-1.8-1.9-2.7
					c-0.6-0.9-1.2-1.7-1.8-2.5c-0.6-0.9-1.3-1.8-1.9-2.6c-0.6-0.8-1.2-1.7-1.9-2.5c-0.6-0.9-1.3-1.7-1.9-2.5
					c-0.6-0.8-1.2-1.7-1.9-2.5c-0.6-0.8-1.3-1.7-1.9-2.5c-0.6-0.8-1.2-1.6-1.9-2.4c-0.6-0.8-1.3-1.6-1.9-2.4
					c-0.6-0.8-1.3-1.6-1.9-2.4c-0.6-0.8-1.2-1.6-1.9-2.3c-0.6-0.8-1.3-1.6-1.9-2.3c-0.6-0.8-1.2-1.5-1.9-2.3
					c-0.6-0.8-1.3-1.5-1.9-2.3c-0.6-0.7-1.2-1.5-1.9-2.2c-0.6-0.8-1.3-1.5-1.9-2.2c-0.6-0.7-1.2-1.4-1.8-2.1
					c-0.6-0.7-1.3-1.5-1.9-2.2c-0.6-0.7-1.2-1.4-1.8-2c-0.6-0.7-1.3-1.4-1.9-2.2c-0.6-0.7-1.2-1.3-1.8-2c-0.6-0.7-1.3-1.4-1.9-2.1
					c-0.6-0.6-1.2-1.3-1.7-1.9c-0.6-0.7-1.3-1.4-1.9-2.1c-0.6-0.6-1.1-1.2-1.7-1.8c-0.6-0.7-1.3-1.4-1.9-2.1
					c-0.5-0.6-1.1-1.2-1.6-1.7c-0.6-0.7-1.3-1.3-1.9-2c-0.5-0.6-1.1-1.1-1.6-1.7c-0.6-0.7-1.3-1.3-1.9-2c-0.5-0.5-1-1-1.5-1.5
					c-0.6-0.7-1.3-1.3-1.9-1.9c-0.5-0.5-1-1-1.4-1.4c-0.6-0.6-1.3-1.3-1.9-1.9c-0.5-0.5-0.9-0.9-1.4-1.4c-0.6-0.6-1.2-1.2-1.8-1.8
					c-0.5-0.4-0.9-0.9-1.4-1.3c-0.6-0.6-1.2-1.2-1.8-1.7c-0.4-0.4-0.9-0.8-1.3-1.2c-0.6-0.6-1.2-1.1-1.8-1.7
					c-0.4-0.4-0.8-0.8-1.2-1.1c-0.6-0.5-1.1-1.1-1.7-1.6c-0.4-0.4-0.8-0.8-1.2-1.1c-0.6-0.5-1.1-1-1.6-1.5c-0.4-0.3-0.8-0.7-1.1-1
					c-0.6-0.5-1.1-1-1.6-1.5c-0.3-0.3-0.7-0.6-1-0.9c-0.5-0.5-1.1-1-1.6-1.4c-0.3-0.3-0.6-0.6-0.9-0.8c-0.5-0.5-1-0.9-1.5-1.3
					c-0.3-0.3-0.6-0.6-0.9-0.8c-0.4-0.4-0.9-0.8-1.3-1.1c-0.3-0.3-0.7-0.6-1-0.9c-0.4-0.3-0.7-0.6-1.1-0.9c-0.4-0.3-0.7-0.6-1.1-0.9
					c-0.2-0.2-0.4-0.4-0.6-0.5c-7.2-6.1-11.5-9.4-11.5-9.4s-0.1,0.1-0.2,0.2c-0.3,0.4-1.2,1.3-2.4,2.8
					C186.1,184.4,78.7,319,92.8,467.1c15.3,161.6,169.6,277.9,169.6,277.9s31.4-35.4,61.5-90.6c1-1.9,2.1-3.8,3.1-5.8
					c0.3-0.6,0.7-1.3,1-1.9c0.7-1.3,1.4-2.6,2.1-4c0.4-0.8,0.8-1.6,1.2-2.4c0.6-1.2,1.2-2.5,1.9-3.7c0.4-0.8,0.8-1.7,1.2-2.5
					c0.6-1.2,1.2-2.5,1.8-3.7c0.4-0.9,0.8-1.7,1.2-2.6c0.6-1.3,1.2-2.6,1.8-3.9c0.4-0.8,0.8-1.7,1.2-2.5c0.6-1.4,1.3-2.8,1.9-4.3
					c0.3-0.7,0.7-1.5,1-2.2c0.9-2,1.7-3.9,2.6-5.9c0.1-0.2,0.2-0.5,0.3-0.7c0.9-2.2,1.9-4.5,2.8-6.8c0.2-0.6,0.5-1.2,0.7-1.8
					c0.7-1.7,1.3-3.4,2-5c0.3-0.8,0.6-1.6,0.9-2.4c0.6-1.5,1.2-3.1,1.7-4.6c0.3-0.9,0.6-1.7,0.9-2.6c0.5-1.5,1.1-3.1,1.6-4.6
					c0.3-0.9,0.6-1.7,0.9-2.6c0.5-1.6,1.1-3.2,1.6-4.8c0.3-0.8,0.5-1.6,0.8-2.4c0.6-1.8,1.1-3.6,1.7-5.4c0.2-0.6,0.4-1.3,0.6-1.9
					c1.5-5,2.9-10.1,4.2-15.2c0-0.2,0.1-0.3,0.1-0.5c0.6-2.4,1.2-4.7,1.7-7.1c0-0.1,0.1-0.3,0.1-0.4c0.2-0.9,0.4-1.7,0.6-2.6
					c0.3-1.1,0.5-2.2,0.8-3.3C370.4,531.8,370.9,529.7,371.3,527.5z"/>
				<path class="st10" d="M337.3,527.4H-40c-33,0-64.3-10.9-69-63.9V59.8c9.2-35.3,36-63.9,69-63.9h377.3c33,0,59.8,28.6,59.8,63.9
					v403.6C397,498.7,370.3,527.4,337.3,527.4z"/>
			</g>
		</g>
	</g>
</g>
</svg>
