<?xml version="1.0" encoding="utf-8"?>
<!-- Generator: Adobe Illustrator 24.1.2, SVG Export Plug-In . SVG Version: 6.00 Build 0)  -->
<svg version="1.1" id="Слой_1" xmlns="http://www.w3.org/2000/svg" xmlns:xlink="http://www.w3.org/1999/xlink" x="0px" y="0px"
	 viewBox="0 0 425.2 425.2" style="enable-background:new 0 0 425.2 425.2;" xml:space="preserve">
<style type="text/css">
	.st0{fill:url(#SVGID_1_);}
	.st1{fill:url(#SVGID_2_);}
	.st2{fill:url(#SVGID_3_);}
	.st3{fill:url(#SVGID_4_);}
	.st4{fill:url(#SVGID_5_);}
	.st5{fill:url(#SVGID_6_);}
	.st6{fill:url(#SVGID_7_);}
	.st7{fill:url(#SVGID_8_);}
	.st8{fill:#FFFFFF;}
	.st9{fill:url(#SVGID_9_);}
	.st10{fill:url(#SVGID_10_);}
	.st11{fill:url(#SVGID_11_);}
	.st12{fill:url(#SVGID_12_);}
	.st13{fill:url(#SVGID_13_);}
	.st14{fill:url(#SVGID_14_);}
	.st15{fill:url(#SVGID_15_);}
	.st16{fill:url(#SVGID_16_);}
</style>
<linearGradient id="SVGID_1_" gradientUnits="userSpaceOnUse" x1="394.7819" y1="-20.4045" x2="70.4602" y2="395.4596">
	<stop  offset="0.1829" style="stop-color:#2E3092"/>
	<stop  offset="1" style="stop-color:#2B264B"/>
</linearGradient>
<path class="st0" d="M322.66,426.3H102.45c-56.38,0-102.52-46.13-102.52-102.52V102.73c0-56.38,46.13-102.52,102.52-102.52h220.22
	c56.38,0,102.52,46.13,102.52,102.52v221.06C425.18,380.17,379.05,426.3,322.66,426.3z"/>
<g>
	
		<linearGradient id="SVGID_2_" gradientUnits="userSpaceOnUse" x1="326.412" y1="-2109.1738" x2="298.382" y2="-2159.8948" gradientTransform="matrix(0 -1 1 0 2375.4026 675.2133)">
		<stop  offset="0" style="stop-color:#7C76B7"/>
		<stop  offset="0.5" style="stop-color:#6561AB"/>
		<stop  offset="1" style="stop-color:#483F99"/>
	</linearGradient>
	<path class="st1" d="M262.2,330.8v82.09c-0.05,0-0.1,0-0.15,0c-40.93,0-74.13-33.04-74.41-73.91v-8.62L262.2,330.8z"/>
	
		<linearGradient id="SVGID_3_" gradientUnits="userSpaceOnUse" x1="3094.0503" y1="535.5661" x2="3067.0667" y2="486.7382" gradientTransform="matrix(1.802374e-03 1 -1 1.802374e-03 790.7686 -3026.7935)">
		<stop  offset="0" style="stop-color:#64C08A"/>
		<stop  offset="0.5" style="stop-color:#00A550"/>
		<stop  offset="1" style="stop-color:#00914C"/>
	</linearGradient>
	<path class="st2" d="M263.57,83.54l0.03-75.75c0.05,0,0.1,0,0.15,0c40.93-0.07,74.19,32.91,74.54,73.77l0.1,2.45L263.57,83.54z"/>
	<linearGradient id="SVGID_4_" gradientUnits="userSpaceOnUse" x1="39.4477" y1="123.2231" x2="693.4055" y2="123.2231">
		<stop  offset="0" style="stop-color:#B07EB7"/>
		<stop  offset="0.5" style="stop-color:#8C3D96"/>
		<stop  offset="1" style="stop-color:#762A90"/>
	</linearGradient>
	<path class="st3" d="M263.51,55.55c-0.08,0-0.16,0-0.24,0v127.3c0.24,0.4,0.47,0.81,0.7,1.22c40.33-9.18,82.85-6.99,122.38,6.83
		c0.04-0.37,0.08-0.74,0.12-1.11c0.31-3.57,0.47-7.17,0.47-10.82C386.93,110.8,331.67,55.55,263.51,55.55z"/>
	
		<linearGradient id="SVGID_5_" gradientUnits="userSpaceOnUse" x1="7125.2759" y1="2317.9819" x2="7356.8188" y2="2317.9819" gradientTransform="matrix(0.0486 0.9988 0.9988 -0.0486 -2454.2429 -6821.4565)">
		<stop  offset="0.0112" style="stop-color:#3EB0CA"/>
		<stop  offset="0.5" style="stop-color:#0099B9"/>
		<stop  offset="0.9944" style="stop-color:#007C84"/>
	</linearGradient>
	<path class="st4" d="M259.15,366.36l99.52-109.69c3.81-4.2,7.26-8.71,10.2-13.56c9.4-15.5,15.49-33.22,17.31-52.2
		c-45.37-15.86-84.68-18.77-138.72-1.38c-30.95,9.95-60.33,28.52-85.08,52.26L38.07,376.56c0,0,0,0,0,0.01
		c39,35.18,90.69,47.31,138.41,37.31C207.22,407.16,236.26,391.25,259.15,366.36z"/>
	<linearGradient id="SVGID_6_" gradientUnits="userSpaceOnUse" x1="197.9408" y1="174.4379" x2="236.1593" y2="141.431">
		<stop  offset="0" style="stop-color:#25A1C8"/>
		<stop  offset="1" style="stop-color:#0076AC"/>
	</linearGradient>
	<path class="st5" d="M302.52,110.1h-130.8c0,0.05,0,0.1,0,0.15c0,40.93,33.04,74.29,73.91,74.56h19.21l38.05-14.03L302.52,110.1z"
		/>
	<linearGradient id="SVGID_7_" gradientUnits="userSpaceOnUse" x1="324.2838" y1="192.3813" x2="262.762" y2="86.4036">
		<stop  offset="0" style="stop-color:#FFE7A3"/>
		<stop  offset="0.5" style="stop-color:#FFCA05"/>
		<stop  offset="1" style="stop-color:#FAAC18"/>
	</linearGradient>
	<path class="st6" d="M263.9,55.53c-0.11,0-0.21,0.01-0.31,0.01v129.25c0.11,0,0.21,0.01,0.31,0.01c35.69,0,64.63-28.94,64.63-64.63
		S299.59,55.53,263.9,55.53z"/>
	<g>
		<circle class="st8" cx="292.01" cy="98.14" r="21.13"/>
		<circle cx="292.01" cy="98.14" r="5.83"/>
	</g>
	<linearGradient id="SVGID_8_" gradientUnits="userSpaceOnUse" x1="226.4421" y1="142.9469" x2="190.1647" y2="77.302">
		<stop  offset="0" style="stop-color:#2BC4F3"/>
		<stop  offset="0.5" style="stop-color:#00AEEE"/>
		<stop  offset="1" style="stop-color:#0095DA"/>
	</linearGradient>
	<path class="st7" d="M263.59,55.53h-55.8c-40.86,0.27-73.91,33.48-73.91,74.41c0,0.05,0,0.1,0,0.15h129.7V55.53z"/>
</g>
</svg>
