<?xml version="1.0" encoding="UTF-8" standalone="no"?>
<svg
   xmlns:dc="http://purl.org/dc/elements/1.1/"
   xmlns:cc="http://creativecommons.org/ns#"
   xmlns:rdf="http://www.w3.org/1999/02/22-rdf-syntax-ns#"
   xmlns:svg="http://www.w3.org/2000/svg"
   xmlns="http://www.w3.org/2000/svg"
   xmlns:xlink="http://www.w3.org/1999/xlink"
   version="1.1"
   id="Layer_1"
   x="0px"
   y="0px"
   viewBox="0 0 512 512"
   style="enable-background:new 0 0 512 512;"
   xml:space="preserve"><metadata
   id="metadata202"><rdf:RDF><cc:Work
       rdf:about=""><dc:format>image/svg+xml</dc:format><dc:type
         rdf:resource="http://purl.org/dc/dcmitype/StillImage" /><dc:title></dc:title></cc:Work></rdf:RDF></metadata><defs
   id="defs200"><linearGradient
     id="linearGradient2159"><stop
       style="stop-color:#0e1f6e;stop-opacity:1"
       offset="0"
       id="stop2155" /><stop
       style="stop-color:#0e41bf;stop-opacity:1"
       offset="1"
       id="stop2157" /></linearGradient><linearGradient
     id="linearGradient1625"
     gradientUnits="userSpaceOnUse"
     x1="54.281101"
     y1="458.73611"
     x2="459.7533"
     y2="53.263901"
     spreadMethod="pad">
		<stop
   offset="0"
   style="stop-color:#05c338;stop-opacity:1"
   id="stop1621" />
		<stop
   offset="1"
   style="stop-color:#FFFFFF"
   id="stop1623" />
	</linearGradient><linearGradient
     id="linearGradient1490"
     gradientUnits="userSpaceOnUse"
     x1="54.281101"
     y1="458.73611"
     x2="459.7533"
     y2="53.263901"
     spreadMethod="pad">
		<stop
   offset="0"
   style="stop-color:#8d9fdd;stop-opacity:1"
   id="stop1486" />
		<stop
   offset="1"
   style="stop-color:#FFFFFF"
   id="stop1488" />
	</linearGradient><linearGradient
     id="linearGradient1484"
     gradientUnits="userSpaceOnUse"
     x1="54.281101"
     y1="458.73611"
     x2="459.7533"
     y2="53.263901"
     spreadMethod="pad">
		<stop
   offset="0"
   style="stop-color:#8d9fdd;stop-opacity:1"
   id="stop1480" />
		<stop
   offset="1"
   style="stop-color:#FFFFFF"
   id="stop1482" />
	</linearGradient><linearGradient
     id="linearGradient1478"
     gradientUnits="userSpaceOnUse"
     x1="54.281101"
     y1="458.73611"
     x2="459.7533"
     y2="53.263901"
     spreadMethod="pad">
		<stop
   offset="0"
   style="stop-color:#8dc3dd;stop-opacity:1"
   id="stop1474" />
		<stop
   offset="1"
   style="stop-color:#FFFFFF"
   id="stop1476" />
	</linearGradient><linearGradient
     id="linearGradient1472"
     gradientUnits="userSpaceOnUse"
     x1="54.281101"
     y1="458.73611"
     x2="459.7533"
     y2="53.263901"
     spreadMethod="pad">
		<stop
   offset="0"
   style="stop-color:#42c3dd;stop-opacity:1"
   id="stop1468" />
		<stop
   offset="1"
   style="stop-color:#FFFFFF"
   id="stop1470" />
	</linearGradient><linearGradient
     id="linearGradient1466"
     gradientUnits="userSpaceOnUse"
     x1="54.281101"
     y1="458.73611"
     x2="459.7533"
     y2="53.263901"
     spreadMethod="pad">
		<stop
   offset="0"
   style="stop-color:#40c3dd;stop-opacity:1"
   id="stop1462" />
		<stop
   offset="1"
   style="stop-color:#FFFFFF"
   id="stop1464" />
	</linearGradient><linearGradient
     id="linearGradient1460"
     gradientUnits="userSpaceOnUse"
     x1="54.281101"
     y1="458.73611"
     x2="459.7533"
     y2="53.263901"
     spreadMethod="pad">
		<stop
   offset="0"
   style="stop-color:#2bc3dd;stop-opacity:1"
   id="stop1456" />
		<stop
   offset="1"
   style="stop-color:#FFFFFF"
   id="stop1458" />
	</linearGradient><linearGradient
     id="linearGradient1454"
     gradientUnits="userSpaceOnUse"
     x1="54.281101"
     y1="458.73611"
     x2="459.7533"
     y2="53.263901"
     spreadMethod="pad">
		<stop
   offset="0"
   style="stop-color:#13c3dd;stop-opacity:1"
   id="stop1450" />
		<stop
   offset="1"
   style="stop-color:#FFFFFF"
   id="stop1452" />
	</linearGradient><linearGradient
     id="linearGradient1448"
     gradientUnits="userSpaceOnUse"
     x1="54.281101"
     y1="458.73611"
     x2="459.7533"
     y2="53.263901"
     spreadMethod="pad">
		<stop
   offset="0"
   style="stop-color:#13c3dd;stop-opacity:1"
   id="stop1444" />
		<stop
   offset="1"
   style="stop-color:#FFFFFF"
   id="stop1446" />
	</linearGradient><linearGradient
     id="linearGradient1442"
     gradientUnits="userSpaceOnUse"
     x1="54.281101"
     y1="458.73611"
     x2="459.7533"
     y2="53.263901"
     spreadMethod="pad">
		<stop
   offset="0"
   style="stop-color:#49c3dd;stop-opacity:1"
   id="stop1438" />
		<stop
   offset="1"
   style="stop-color:#FFFFFF"
   id="stop1440" />
	</linearGradient><linearGradient
     id="linearGradient1436"
     gradientUnits="userSpaceOnUse"
     x1="54.281101"
     y1="458.73611"
     x2="459.7533"
     y2="53.263901"
     spreadMethod="pad">
		<stop
   offset="0"
   style="stop-color:#49c3dd;stop-opacity:1"
   id="stop1432" />
		<stop
   offset="1"
   style="stop-color:#FFFFFF"
   id="stop1434" />
	</linearGradient><linearGradient
     id="linearGradient1430"
     gradientUnits="userSpaceOnUse"
     x1="54.281101"
     y1="458.73611"
     x2="459.7533"
     y2="53.263901"
     spreadMethod="pad">
		<stop
   offset="0"
   style="stop-color:#15c3dd;stop-opacity:1"
   id="stop1426" />
		<stop
   offset="1"
   style="stop-color:#FFFFFF"
   id="stop1428" />
	</linearGradient><linearGradient
     id="linearGradient1424"
     gradientUnits="userSpaceOnUse"
     x1="54.281101"
     y1="458.73611"
     x2="459.7533"
     y2="53.263901"
     spreadMethod="pad">
		<stop
   offset="0"
   style="stop-color:#15c3dd;stop-opacity:1"
   id="stop1420" />
		<stop
   offset="1"
   style="stop-color:#FFFFFF"
   id="stop1422" />
	</linearGradient><linearGradient
     id="linearGradient1418"
     gradientUnits="userSpaceOnUse"
     x1="54.281101"
     y1="458.73611"
     x2="459.7533"
     y2="53.263901"
     spreadMethod="pad">
		<stop
   offset="0"
   style="stop-color:#03c3dd;stop-opacity:1"
   id="stop1414" />
		<stop
   offset="1"
   style="stop-color:#FFFFFF"
   id="stop1416" />
	</linearGradient><linearGradient
     id="linearGradient1412"
     gradientUnits="userSpaceOnUse"
     x1="54.281101"
     y1="458.73611"
     x2="459.7533"
     y2="53.263901"
     spreadMethod="pad">
		<stop
   offset="0"
   style="stop-color:#03c3dd;stop-opacity:1"
   id="stop1408" />
		<stop
   offset="1"
   style="stop-color:#FFFFFF"
   id="stop1410" />
	</linearGradient><linearGradient
     id="linearGradient1406"
     gradientUnits="userSpaceOnUse"
     x1="54.281101"
     y1="458.73611"
     x2="459.7533"
     y2="53.263901"
     spreadMethod="pad">
		<stop
   offset="0"
   style="stop-color:#4cc3dd;stop-opacity:1"
   id="stop1402" />
		<stop
   offset="1"
   style="stop-color:#FFFFFF"
   id="stop1404" />
	</linearGradient><linearGradient
     id="linearGradient1400"
     gradientUnits="userSpaceOnUse"
     x1="54.281101"
     y1="458.73611"
     x2="459.7533"
     y2="53.263901"
     spreadMethod="pad">
		<stop
   offset="0"
   style="stop-color:#4cc3dd;stop-opacity:1"
   id="stop1396" />
		<stop
   offset="1"
   style="stop-color:#FFFFFF"
   id="stop1398" />
	</linearGradient><linearGradient
     id="linearGradient1394"
     gradientUnits="userSpaceOnUse"
     x1="54.281101"
     y1="458.73611"
     x2="459.7533"
     y2="53.263901"
     spreadMethod="pad">
		<stop
   offset="0"
   style="stop-color:#1cc3dd;stop-opacity:1"
   id="stop1390" />
		<stop
   offset="1"
   style="stop-color:#FFFFFF"
   id="stop1392" />
	</linearGradient><linearGradient
     id="linearGradient1388"
     gradientUnits="userSpaceOnUse"
     x1="54.281101"
     y1="458.73611"
     x2="459.7533"
     y2="53.263901"
     spreadMethod="pad">
		<stop
   offset="0"
   style="stop-color:#1cc3dd;stop-opacity:1"
   id="stop1384" />
		<stop
   offset="1"
   style="stop-color:#FFFFFF"
   id="stop1386" />
	</linearGradient><linearGradient
     id="linearGradient1382"
     gradientUnits="userSpaceOnUse"
     x1="54.281101"
     y1="458.73611"
     x2="459.7533"
     y2="53.263901"
     spreadMethod="pad">
		<stop
   offset="0"
   style="stop-color:#08c3dd;stop-opacity:1"
   id="stop1378" />
		<stop
   offset="1"
   style="stop-color:#FFFFFF"
   id="stop1380" />
	</linearGradient><linearGradient
     id="linearGradient1376"
     gradientUnits="userSpaceOnUse"
     x1="54.281101"
     y1="458.73611"
     x2="459.7533"
     y2="53.263901"
     spreadMethod="pad">
		<stop
   offset="0"
   style="stop-color:#08c3dd;stop-opacity:1"
   id="stop1372" />
		<stop
   offset="1"
   style="stop-color:#FFFFFF"
   id="stop1374" />
	</linearGradient><linearGradient
     id="linearGradient1370"
     gradientUnits="userSpaceOnUse"
     x1="54.281101"
     y1="458.73611"
     x2="459.7533"
     y2="53.263901"
     spreadMethod="pad">
		<stop
   offset="0"
   style="stop-color:#05c375;stop-opacity:1"
   id="stop1366" />
		<stop
   offset="1"
   style="stop-color:#FFFFFF"
   id="stop1368" />
	</linearGradient><linearGradient
     id="linearGradient1364"
     gradientUnits="userSpaceOnUse"
     x1="54.281101"
     y1="458.73611"
     x2="459.7533"
     y2="53.263901"
     spreadMethod="pad">
		<stop
   offset="0"
   style="stop-color:#05c36f;stop-opacity:1"
   id="stop1360" />
		<stop
   offset="1"
   style="stop-color:#FFFFFF"
   id="stop1362" />
	</linearGradient><linearGradient
     id="linearGradient1358"
     gradientUnits="userSpaceOnUse"
     x1="54.281101"
     y1="458.73611"
     x2="459.7533"
     y2="53.263901"
     spreadMethod="pad">
		<stop
   offset="0"
   style="stop-color:#05c347;stop-opacity:1"
   id="stop1354" />
		<stop
   offset="1"
   style="stop-color:#FFFFFF"
   id="stop1356" />
	</linearGradient><linearGradient
     id="linearGradient1352"
     gradientUnits="userSpaceOnUse"
     x1="54.281101"
     y1="458.73611"
     x2="459.7533"
     y2="53.263901"
     spreadMethod="pad">
		<stop
   offset="0"
   style="stop-color:#05c347;stop-opacity:1"
   id="stop1348" />
		<stop
   offset="1"
   style="stop-color:#FFFFFF"
   id="stop1350" />
	</linearGradient><linearGradient
     id="linearGradient1346"
     gradientUnits="userSpaceOnUse"
     x1="54.281101"
     y1="458.73611"
     x2="459.7533"
     y2="53.263901"
     spreadMethod="pad">
		<stop
   offset="0"
   style="stop-color:#05c34a;stop-opacity:1"
   id="stop1342" />
		<stop
   offset="1"
   style="stop-color:#FFFFFF"
   id="stop1344" />
	</linearGradient><linearGradient
     id="linearGradient1340"
     gradientUnits="userSpaceOnUse"
     x1="54.281101"
     y1="458.73611"
     x2="459.7533"
     y2="53.263901"
     spreadMethod="pad">
		<stop
   offset="0"
   style="stop-color:#05c34a;stop-opacity:1"
   id="stop1336" />
		<stop
   offset="1"
   style="stop-color:#FFFFFF"
   id="stop1338" />
	</linearGradient><linearGradient
     id="linearGradient1334"
     gradientUnits="userSpaceOnUse"
     x1="54.281101"
     y1="458.73611"
     x2="459.7533"
     y2="53.263901"
     spreadMethod="pad">
		<stop
   offset="0"
   style="stop-color:#05c39d;stop-opacity:1"
   id="stop1330" />
		<stop
   offset="1"
   style="stop-color:#FFFFFF"
   id="stop1332" />
	</linearGradient><linearGradient
     id="linearGradient1328"
     gradientUnits="userSpaceOnUse"
     x1="54.281101"
     y1="458.73611"
     x2="459.7533"
     y2="53.263901"
     spreadMethod="pad">
		<stop
   offset="0"
   style="stop-color:#05c39d;stop-opacity:1"
   id="stop1324" />
		<stop
   offset="1"
   style="stop-color:#FFFFFF"
   id="stop1326" />
	</linearGradient><linearGradient
     id="linearGradient1322"
     gradientUnits="userSpaceOnUse"
     x1="54.281101"
     y1="458.73611"
     x2="459.7533"
     y2="53.263901"
     spreadMethod="pad">
		<stop
   offset="0"
   style="stop-color:#05c3da;stop-opacity:1"
   id="stop1318" />
		<stop
   offset="1"
   style="stop-color:#FFFFFF"
   id="stop1320" />
	</linearGradient><linearGradient
     id="linearGradient1316"
     gradientUnits="userSpaceOnUse"
     x1="54.281101"
     y1="458.73611"
     x2="459.7533"
     y2="53.263901"
     spreadMethod="pad">
		<stop
   offset="0"
   style="stop-color:#05c3da;stop-opacity:1"
   id="stop1312" />
		<stop
   offset="1"
   style="stop-color:#FFFFFF"
   id="stop1314" />
	</linearGradient><linearGradient
     id="linearGradient1310"
     gradientUnits="userSpaceOnUse"
     x1="54.281101"
     y1="458.73611"
     x2="459.7533"
     y2="53.263901"
     spreadMethod="pad">
		<stop
   offset="0"
   style="stop-color:#ffc3dd;stop-opacity:1"
   id="stop1306" />
		<stop
   offset="1"
   style="stop-color:#FFFFFF"
   id="stop1308" />
	</linearGradient><linearGradient
     id="linearGradient1304"
     gradientUnits="userSpaceOnUse"
     x1="54.281101"
     y1="458.73611"
     x2="459.7533"
     y2="53.263901"
     spreadMethod="pad">
		<stop
   offset="0"
   style="stop-color:#ffc3dd;stop-opacity:1"
   id="stop1300" />
		<stop
   offset="1"
   style="stop-color:#FFFFFF"
   id="stop1302" />
	</linearGradient><linearGradient
     id="linearGradient1298"
     gradientUnits="userSpaceOnUse"
     x1="54.281101"
     y1="458.73611"
     x2="459.7533"
     y2="53.263901"
     spreadMethod="pad">
		<stop
   offset="0"
   style="stop-color:#eec3dd;stop-opacity:1"
   id="stop1294" />
		<stop
   offset="1"
   style="stop-color:#FFFFFF"
   id="stop1296" />
	</linearGradient><linearGradient
     id="linearGradient1292"
     gradientUnits="userSpaceOnUse"
     x1="54.281101"
     y1="458.73611"
     x2="459.7533"
     y2="53.263901"
     spreadMethod="pad">
		<stop
   offset="0"
   style="stop-color:#eec3dd;stop-opacity:1"
   id="stop1288" />
		<stop
   offset="1"
   style="stop-color:#FFFFFF"
   id="stop1290" />
	</linearGradient><linearGradient
     id="linearGradient1286"
     gradientUnits="userSpaceOnUse"
     x1="54.281101"
     y1="458.73611"
     x2="459.7533"
     y2="53.263901"
     spreadMethod="pad">
		<stop
   offset="0"
   style="stop-color:#bfc3dd;stop-opacity:1"
   id="stop1282" />
		<stop
   offset="1"
   style="stop-color:#FFFFFF"
   id="stop1284" />
	</linearGradient><linearGradient
     id="linearGradient1280"
     gradientUnits="userSpaceOnUse"
     x1="54.281101"
     y1="458.73611"
     x2="459.7533"
     y2="53.263901"
     spreadMethod="pad">
		<stop
   offset="0"
   style="stop-color:#bfc3dd;stop-opacity:1"
   id="stop1276" />
		<stop
   offset="1"
   style="stop-color:#FFFFFF"
   id="stop1278" />
	</linearGradient><linearGradient
     id="linearGradient1274"
     gradientUnits="userSpaceOnUse"
     x1="54.281101"
     y1="458.73611"
     x2="459.7533"
     y2="53.263901"
     spreadMethod="pad">
		<stop
   offset="0"
   style="stop-color:#05c304;stop-opacity:1"
   id="stop1270" />
		<stop
   offset="1"
   style="stop-color:#FFFFFF"
   id="stop1272" />
	</linearGradient><linearGradient
     id="linearGradient1268"
     gradientUnits="userSpaceOnUse"
     x1="54.281101"
     y1="458.73611"
     x2="459.7533"
     y2="53.263901"
     spreadMethod="pad">
		<stop
   offset="0"
   style="stop-color:#05c304;stop-opacity:1"
   id="stop1264" />
		<stop
   offset="1"
   style="stop-color:#FFFFFF"
   id="stop1266" />
	</linearGradient><linearGradient
     id="linearGradient1262"
     gradientUnits="userSpaceOnUse"
     x1="54.281101"
     y1="458.73611"
     x2="459.7533"
     y2="53.263901"
     spreadMethod="pad">
		<stop
   offset="0"
   style="stop-color:#05c302;stop-opacity:1"
   id="stop1258" />
		<stop
   offset="1"
   style="stop-color:#FFFFFF"
   id="stop1260" />
	</linearGradient><linearGradient
     id="linearGradient1256"
     gradientUnits="userSpaceOnUse"
     x1="54.281101"
     y1="458.73611"
     x2="459.7533"
     y2="53.263901"
     spreadMethod="pad">
		<stop
   offset="0"
   style="stop-color:#05c302;stop-opacity:1"
   id="stop1252" />
		<stop
   offset="1"
   style="stop-color:#FFFFFF"
   id="stop1254" />
	</linearGradient><linearGradient
     id="linearGradient1250"
     gradientUnits="userSpaceOnUse"
     x1="54.281101"
     y1="458.73611"
     x2="459.7533"
     y2="53.263901"
     spreadMethod="pad">
		<stop
   offset="0"
   style="stop-color:#05c301;stop-opacity:1"
   id="stop1246" />
		<stop
   offset="1"
   style="stop-color:#FFFFFF"
   id="stop1248" />
	</linearGradient><linearGradient
     id="linearGradient1244"
     gradientUnits="userSpaceOnUse"
     x1="54.281101"
     y1="458.73611"
     x2="459.7533"
     y2="53.263901"
     spreadMethod="pad">
		<stop
   offset="0"
   style="stop-color:#05c301;stop-opacity:1"
   id="stop1240" />
		<stop
   offset="1"
   style="stop-color:#FFFFFF"
   id="stop1242" />
	</linearGradient><linearGradient
     id="linearGradient1238"
     gradientUnits="userSpaceOnUse"
     x1="54.281101"
     y1="458.73611"
     x2="459.7533"
     y2="53.263901"
     spreadMethod="pad">
		<stop
   offset="0"
   style="stop-color:#05c328;stop-opacity:1"
   id="stop1234" />
		<stop
   offset="1"
   style="stop-color:#FFFFFF"
   id="stop1236" />
	</linearGradient><linearGradient
     id="linearGradient1232"
     gradientUnits="userSpaceOnUse"
     x1="54.281101"
     y1="458.73611"
     x2="459.7533"
     y2="53.263901"
     spreadMethod="pad">
		<stop
   offset="0"
   style="stop-color:#05c328;stop-opacity:1"
   id="stop1228" />
		<stop
   offset="1"
   style="stop-color:#FFFFFF"
   id="stop1230" />
	</linearGradient><linearGradient
     id="linearGradient1226"
     gradientUnits="userSpaceOnUse"
     x1="54.281101"
     y1="458.73611"
     x2="459.7533"
     y2="53.263901"
     spreadMethod="pad">
		<stop
   offset="0"
   style="stop-color:#ffc329;stop-opacity:1"
   id="stop1222" />
		<stop
   offset="1"
   style="stop-color:#FFFFFF"
   id="stop1224" />
	</linearGradient><linearGradient
     id="linearGradient1220"
     gradientUnits="userSpaceOnUse"
     x1="54.281101"
     y1="458.73611"
     x2="459.7533"
     y2="53.263901"
     spreadMethod="pad">
		<stop
   offset="0"
   style="stop-color:#ffc329;stop-opacity:1"
   id="stop1216" />
		<stop
   offset="1"
   style="stop-color:#FFFFFF"
   id="stop1218" />
	</linearGradient><linearGradient
     id="linearGradient1214"
     gradientUnits="userSpaceOnUse"
     x1="54.281101"
     y1="458.73611"
     x2="459.7533"
     y2="53.263901"
     spreadMethod="pad">
		<stop
   offset="0"
   style="stop-color:#ffc32b;stop-opacity:1"
   id="stop1210" />
		<stop
   offset="1"
   style="stop-color:#FFFFFF"
   id="stop1212" />
	</linearGradient><linearGradient
     id="linearGradient1208"
     gradientUnits="userSpaceOnUse"
     x1="54.281101"
     y1="458.73611"
     x2="459.7533"
     y2="53.263901"
     spreadMethod="pad">
		<stop
   offset="0"
   style="stop-color:#ffc342;stop-opacity:1"
   id="stop1204" />
		<stop
   offset="1"
   style="stop-color:#FFFFFF"
   id="stop1206" />
	</linearGradient><linearGradient
     id="linearGradient1202"
     gradientUnits="userSpaceOnUse"
     x1="54.281101"
     y1="458.73611"
     x2="459.7533"
     y2="53.263901"
     spreadMethod="pad">
		<stop
   offset="0"
   style="stop-color:#ffc345;stop-opacity:1"
   id="stop1198" />
		<stop
   offset="1"
   style="stop-color:#FFFFFF"
   id="stop1200" />
	</linearGradient><linearGradient
     id="linearGradient1196"
     gradientUnits="userSpaceOnUse"
     x1="54.281101"
     y1="458.73611"
     x2="459.7533"
     y2="53.263901"
     spreadMethod="pad">
		<stop
   offset="0"
   style="stop-color:#ffc35c;stop-opacity:1"
   id="stop1192" />
		<stop
   offset="1"
   style="stop-color:#FFFFFF"
   id="stop1194" />
	</linearGradient><linearGradient
     id="linearGradient1190"
     gradientUnits="userSpaceOnUse"
     x1="54.281101"
     y1="458.73611"
     x2="459.7533"
     y2="53.263901"
     spreadMethod="pad">
		<stop
   offset="0"
   style="stop-color:#ffc397;stop-opacity:1"
   id="stop1186" />
		<stop
   offset="1"
   style="stop-color:#FFFFFF"
   id="stop1188" />
	</linearGradient><linearGradient
     id="linearGradient1184"
     gradientUnits="userSpaceOnUse"
     x1="54.281101"
     y1="458.73611"
     x2="459.7533"
     y2="53.263901"
     spreadMethod="pad">
		<stop
   offset="0"
   style="stop-color:#ffc3df;stop-opacity:1"
   id="stop1180" />
		<stop
   offset="1"
   style="stop-color:#FFFFFF"
   id="stop1182" />
	</linearGradient><linearGradient
     id="linearGradient1178"
     gradientUnits="userSpaceOnUse"
     x1="54.281101"
     y1="458.73611"
     x2="459.7533"
     y2="53.263901"
     spreadMethod="pad">
		<stop
   offset="0"
   style="stop-color:#ffc3df;stop-opacity:1"
   id="stop1174" />
		<stop
   offset="1"
   style="stop-color:#FFFFFF"
   id="stop1176" />
	</linearGradient><linearGradient
     id="linearGradient1172"
     gradientUnits="userSpaceOnUse"
     x1="54.281101"
     y1="458.73611"
     x2="459.7533"
     y2="53.263901"
     spreadMethod="pad">
		<stop
   offset="0"
   style="stop-color:#e8c3dd;stop-opacity:1"
   id="stop1168" />
		<stop
   offset="1"
   style="stop-color:#FFFFFF"
   id="stop1170" />
	</linearGradient><linearGradient
     id="linearGradient1166"
     gradientUnits="userSpaceOnUse"
     x1="54.281101"
     y1="458.73611"
     x2="459.7533"
     y2="53.263901"
     spreadMethod="pad">
		<stop
   offset="0"
   style="stop-color:#e8c3dd;stop-opacity:1"
   id="stop1162" />
		<stop
   offset="1"
   style="stop-color:#FFFFFF"
   id="stop1164" />
	</linearGradient><linearGradient
     id="linearGradient1160"
     gradientUnits="userSpaceOnUse"
     x1="54.281101"
     y1="458.73611"
     x2="459.7533"
     y2="53.263901"
     spreadMethod="pad">
		<stop
   offset="0"
   style="stop-color:#e8c3dd;stop-opacity:1"
   id="stop1156" />
		<stop
   offset="1"
   style="stop-color:#FFFFFF"
   id="stop1158" />
	</linearGradient><linearGradient
     id="linearGradient1154"
     gradientUnits="userSpaceOnUse"
     x1="54.281101"
     y1="458.73611"
     x2="459.7533"
     y2="53.263901"
     spreadMethod="pad">
		<stop
   offset="0"
   style="stop-color:#e6c3dd;stop-opacity:1"
   id="stop1150" />
		<stop
   offset="1"
   style="stop-color:#FFFFFF"
   id="stop1152" />
	</linearGradient><linearGradient
     id="linearGradient1148"
     gradientUnits="userSpaceOnUse"
     x1="54.281101"
     y1="458.73611"
     x2="459.7533"
     y2="53.263901"
     spreadMethod="pad">
		<stop
   offset="0"
   style="stop-color:#d7c3dd;stop-opacity:1"
   id="stop1144" />
		<stop
   offset="1"
   style="stop-color:#FFFFFF"
   id="stop1146" />
	</linearGradient><linearGradient
     id="linearGradient1142"
     gradientUnits="userSpaceOnUse"
     x1="54.281101"
     y1="458.73611"
     x2="459.7533"
     y2="53.263901"
     spreadMethod="pad">
		<stop
   offset="0"
   style="stop-color:#b5c3dd;stop-opacity:1"
   id="stop1138" />
		<stop
   offset="1"
   style="stop-color:#FFFFFF"
   id="stop1140" />
	</linearGradient><linearGradient
     id="linearGradient1136"
     gradientUnits="userSpaceOnUse"
     x1="54.281101"
     y1="458.73611"
     x2="459.7533"
     y2="53.263901"
     spreadMethod="pad">
		<stop
   offset="0"
   style="stop-color:#a5c3dd;stop-opacity:1"
   id="stop1132" />
		<stop
   offset="1"
   style="stop-color:#FFFFFF"
   id="stop1134" />
	</linearGradient><linearGradient
     id="linearGradient1130"
     gradientUnits="userSpaceOnUse"
     x1="54.281101"
     y1="458.73611"
     x2="459.7533"
     y2="53.263901"
     spreadMethod="pad">
		<stop
   offset="0"
   style="stop-color:#9cc3dd;stop-opacity:1"
   id="stop1126" />
		<stop
   offset="1"
   style="stop-color:#FFFFFF"
   id="stop1128" />
	</linearGradient><linearGradient
     id="linearGradient1124"
     gradientUnits="userSpaceOnUse"
     x1="54.281101"
     y1="458.73611"
     x2="459.7533"
     y2="53.263901"
     spreadMethod="pad">
		<stop
   offset="0"
   style="stop-color:#78c3dd;stop-opacity:1"
   id="stop1120" />
		<stop
   offset="1"
   style="stop-color:#FFFFFF"
   id="stop1122" />
	</linearGradient><linearGradient
     id="linearGradient1118"
     gradientUnits="userSpaceOnUse"
     x1="54.281101"
     y1="458.73611"
     x2="459.7533"
     y2="53.263901"
     spreadMethod="pad">
		<stop
   offset="0"
   style="stop-color:#46c3dd;stop-opacity:1"
   id="stop1114" />
		<stop
   offset="1"
   style="stop-color:#FFFFFF"
   id="stop1116" />
	</linearGradient><linearGradient
     id="linearGradient1112"
     gradientUnits="userSpaceOnUse"
     x1="54.281101"
     y1="458.73611"
     x2="459.7533"
     y2="53.263901"
     spreadMethod="pad">
		<stop
   offset="0"
   style="stop-color:#3cc3dd;stop-opacity:1"
   id="stop1108" />
		<stop
   offset="1"
   style="stop-color:#FFFFFF"
   id="stop1110" />
	</linearGradient><linearGradient
     id="linearGradient1106"
     gradientUnits="userSpaceOnUse"
     x1="54.281101"
     y1="458.73611"
     x2="459.7533"
     y2="53.263901"
     spreadMethod="pad">
		<stop
   offset="0"
   style="stop-color:#04c3dd;stop-opacity:1"
   id="stop1102" />
		<stop
   offset="1"
   style="stop-color:#FFFFFF"
   id="stop1104" />
	</linearGradient><linearGradient
     id="linearGradient1100"
     gradientUnits="userSpaceOnUse"
     x1="54.2811"
     y1="458.7361"
     x2="459.7533"
     y2="53.2639">
		<stop
   offset="0"
   style="stop-color:#03c3dd;stop-opacity:1"
   id="stop1096" />
		<stop
   offset="1"
   style="stop-color:#FFFFFF"
   id="stop1098" />
	</linearGradient><linearGradient
     id="SVGID_7_-3"
     gradientUnits="userSpaceOnUse"
     x1="-106.34"
     y1="570.47333"
     x2="337.52301"
     y2="126.6103"
     spreadMethod="pad"
     xlink:href="#SVGID_1_">
					<stop
   offset="0"
   style="stop-color:#fecb6a;stop-opacity:1"
   id="stop1055" />
					<stop
   offset="1"
   style="stop-color:#d40000;stop-opacity:1"
   id="stop1057" />
				</linearGradient><linearGradient
     id="SVGID_7_"
     gradientUnits="userSpaceOnUse"
     x1="-106.34"
     y1="570.47333"
     x2="337.52301"
     y2="126.6103"
     spreadMethod="pad">
					<stop
   offset="0"
   style="stop-color:#25e159;stop-opacity:1"
   id="stop1050" />
					<stop
   offset="1"
   style="stop-color:#05C3DD"
   id="stop1052" />
				</linearGradient><linearGradient
     id="SVGID_7_-6"
     gradientUnits="userSpaceOnUse"
     x1="-106.34"
     y1="570.47333"
     x2="337.52301"
     y2="126.6103"
     spreadMethod="pad">
					<stop
   offset="0"
   style="stop-color:#84CB6A"
   id="stop1043" />
					<stop
   offset="1"
   style="stop-color:#05C3DD"
   id="stop1045" />
				</linearGradient><linearGradient
     xlink:href="#SVGID_7_"
     id="linearGradient1048"
     gradientUnits="userSpaceOnUse"
     x1="152.70512"
     y1="510.2919"
     x2="371.61511"
     y2="373.29031" /><linearGradient
     xlink:href="#SVGID_7_-3-7"
     id="linearGradient1094"
     x1="-45.373207"
     y1="468.71399"
     x2="139.78664"
     y2="105.2631"
     gradientUnits="userSpaceOnUse" /><linearGradient
     xlink:href="#linearGradient1625"
     id="linearGradient1492"
     gradientUnits="userSpaceOnUse"
     x1="54.2811"
     y1="458.7361"
     x2="459.7533"
     y2="53.2639" /><filter
     style="color-interpolation-filters:sRGB"
     id="filter1544"
     x="-2.9338988e-05"
     width="1.0000587"
     y="-1.4352017e-05"
     height="1.0000287"><feGaussianBlur
       stdDeviation="0.0034971082"
       id="feGaussianBlur1546" /></filter><linearGradient
     xlink:href="#linearGradient2159"
     id="linearGradient2161"
     x1="251.20454"
     y1="75.964035"
     x2="382.47205"
     y2="-12.708515"
     gradientUnits="userSpaceOnUse" /></defs>
<style
   type="text/css"
   id="style133">
	.st0{fill:url(#SVGID_1_);}
	.st1{clip-path:url(#SVGID_3_);}
	.st2{clip-path:url(#SVGID_5_);}
	.st3{fill:url(#SVGID_6_);}
	.st4{fill:#0E5ADE;}
	.st5{fill:url(#SVGID_7_);}
	.st6{fill:#FFFFFF;}
	.st7{fill:#000100;}
	.st8{opacity:0.9;fill:#FFFFFF;}
	.st9{fill:url(#SVGID_8_);}
	.st10{fill:none;}
</style>
<g
   id="g195">
	<linearGradient
   id="SVGID_1_"
   gradientUnits="userSpaceOnUse"
   x1="54.2811"
   y1="458.7361"
   x2="459.7533"
   y2="53.2639"
   xlink:href="#linearGradient1490">
		<stop
   offset="0"
   style="stop-color:#05C3DD"
   id="stop135" />
		<stop
   offset="1"
   style="stop-color:#FFFFFF"
   id="stop137" />
	</linearGradient>
	<path
   class="st0"
   d="M332.4,512H181.6C82.9,512,2,431.2,2,332.4V179.6C2,80.8,82.9,0,181.6,0h150.8C431.2,0,512,80.8,512,179.6   v152.8C512,431.2,431.2,512,332.4,512z"
   id="path140"
   style="fill-opacity:1;fill:url(#linearGradient1492)" />
	<g
   id="g193">
		<defs
   id="defs143">
			<path
   id="SVGID_2_"
   d="M330.4,511.7H179.5C80.8,511.7,0,430.9,0,332.2V179.5C0,80.8,80.8,0,179.5,0h182.2     C460.4,0,510,80.8,510,179.5v152.6C510,430.9,429.2,511.7,330.4,511.7z" />
		</defs>
		<clipPath
   id="SVGID_3_">
			<use
   xlink:href="#SVGID_2_"
   style="overflow:visible;"
   id="use145" />
		</clipPath>
		<g
   class="st1"
   clip-path="url(#SVGID_3_)"
   id="g191">
			<defs
   id="defs149">
				<path
   id="SVGID_4_"
   d="M408.6,527.4H-38.2c-56,0-101.4-45.4-101.4-101.4V97.3c0-56,45.4-101.4,101.4-101.4h446.8      c56,0,101.4,45.4,101.4,101.4V426C510,482,464.6,527.4,408.6,527.4z" />
			</defs>
			<clipPath
   id="SVGID_5_">
				<use
   xlink:href="#SVGID_4_"
   style="overflow:visible;"
   id="use151" />
			</clipPath>
			<g
   class="st2"
   clip-path="url(#SVGID_5_)"
   id="g189">
				<linearGradient
   id="SVGID_6_"
   gradientUnits="userSpaceOnUse"
   x1="213.6365"
   y1="166.8224"
   x2="306.2572"
   y2="74.2016">
					<stop
   offset="0.1535"
   style="stop-color:#004680"
   id="stop154" />
					<stop
   offset="0.9136"
   style="stop-color:#161C2E"
   id="stop156" />
				</linearGradient>
				<path
   class="st3"
   d="M271.9,160h-65.1V98.6h123.9l0,0C330.7,132.5,304.4,160,271.9,160z"
   id="path159" />
				<path
   class="st4"
   d="M397,87.8l0.2,60.6c0,1-1.5,1.1-1.6,0.1c-5.6-28.4-31.5-49.9-60.3-49.9H171.6V0c11.3-2.7,23.1-4.1,35.2-4.1      h132.7C388.2-4.1,396.6,42.9,397,87.8z"
   id="path161"
   style="fill:url(#linearGradient2161);fill-opacity:1" />
				<linearGradient
   id="SVGID_7_-3-7"
   gradientUnits="userSpaceOnUse"
   x1="-106.34"
   y1="570.47333"
   x2="337.52301"
   y2="126.6103"
   spreadMethod="pad"
   xlink:href="#SVGID_8_">
					<stop
   offset="0"
   style="stop-color:#feff5b;stop-opacity:1"
   id="stop163" />
					<stop
   offset="1"
   style="stop-color:#d40000;stop-opacity:1"
   id="stop165" />
				</linearGradient>
				<path
   class="st5"
   d="M62.1,33.8c-0.5,0.3-1.1,0.6-1.6,0.9c-0.2,0.1-0.4,0.3-0.7,0.4C37.3,48,16.5,63.8-2.2,82      c-49.7,48.3-84.1,113.7-94.9,187.3c-2.4,16.1-12.7,32.7-12.7,49.5c0,0,0,0,0,0v0c0,3.4,0.1,6.8,0.2,10.2c0,1,0.1,2,0.1,3      c0.1,2.5,0.2,5.1,0.4,7.6c0.1,0.9,0.1,1.9,0.2,2.8c0.2,3.3,0.5,6.7,0.8,10c0,0.4,0.1,0.8,0.1,1.2c0.3,3.1,0.7,6.2,1.1,9.3      c0,0.3,0.1,0.5,0.1,0.8c0,0,0,0,0,0c20.8,157.2-154.2,249.9,313.7,278.1V85.6V-4.1C154.5-4.1,105.2,9.6,62.1,33.8z"
   id="path168"
   style="fill-opacity:1;fill:url(#linearGradient1094)" />
				<path
   class="st6"
   d="M206.8-4.1v195.3c-51.7,0-93.6-43.7-93.6-97.7c0-28.3,11.5-53.8,30-71.6C159.9,5.7,182.2-4.1,206.8-4.1z"
   id="path170" />
				<g
   id="g178">
					<path
   class="st6"
   d="M136.7,42.7c-3.2,12.5,4,25.4,16,28.7c12,3.3,24.3-4.1,27.5-16.7c3.2-12.5-4-25.4-16-28.7       C152.2,22.7,139.9,30.2,136.7,42.7z"
   id="path172" />
					<path
   class="st7"
   d="M143.5,44.6c-2.2,8.6,2.7,17.5,11,19.7c8.3,2.3,16.7-2.9,18.9-11.5c2.2-8.6-2.7-17.5-11-19.7       C154.2,30.9,145.7,36,143.5,44.6z"
   id="path174" />
					<path
   class="st8"
   d="M147.1,53.9c-0.5,1.9,0.6,3.9,2.5,4.4c1.8,0.5,3.7-0.6,4.2-2.6c0.5-1.9-0.6-3.9-2.5-4.4       C149.5,50.8,147.6,52,147.1,53.9z"
   id="path176" />
				</g>
				<linearGradient
   id="SVGID_8_"
   gradientUnits="userSpaceOnUse"
   x1="97.5817"
   y1="531.5035"
   x2="371.6151"
   y2="373.2903">
					<stop
   offset="0"
   style="stop-color:#0E5ADE"
   id="stop180" />
					<stop
   offset="1"
   style="stop-color:#05C3DD"
   id="stop182" />
				</linearGradient>
				<path
   class="st9"
   d="M371.3,527.5c0.1-0.6,0.2-1.2,0.4-1.9c0.3-1.6,0.6-3.3,0.9-4.9c0.1-0.8,0.3-1.6,0.4-2.4      c0.3-1.5,0.5-3,0.7-4.5c0.1-0.8,0.3-1.7,0.4-2.5c0.2-1.5,0.4-2.9,0.6-4.4c0.1-0.8,0.2-1.7,0.3-2.5c0.2-1.5,0.4-3,0.6-4.6      c0.1-0.8,0.2-1.6,0.3-2.4c0.2-1.7,0.3-3.4,0.5-5.1c0.1-0.6,0.1-1.3,0.2-1.9c0.2-2.3,0.4-4.7,0.5-7c0-0.2,0-0.5,0-0.7      c0.1-2.1,0.2-4.2,0.3-6.3c0-0.8,0-1.6,0.1-2.4c0-1.5,0.1-3.1,0.1-4.7c0-0.9,0-1.9,0-2.8c0-1.4,0-2.9,0-4.3c0-1,0-1.9,0-2.9      c0-1.4-0.1-2.9-0.1-4.3c0-1-0.1-1.9-0.1-2.9c-0.1-1.6-0.2-3.1-0.3-4.7c0-0.8-0.1-1.6-0.1-2.5c-0.2-2.4-0.4-4.8-0.6-7.2      c-0.2-2.5-0.5-5-0.8-7.5c-0.1-0.9-0.2-1.8-0.4-2.7c-0.2-1.6-0.4-3.2-0.6-4.7c-0.2-1-0.3-2-0.5-3.1c-0.2-1.4-0.4-2.9-0.7-4.3      c-0.2-1.1-0.4-2.2-0.6-3.3c-0.3-1.3-0.5-2.7-0.8-4c-0.2-1.1-0.5-2.3-0.7-3.4c-0.3-1.3-0.5-2.6-0.8-3.8c-0.3-1.1-0.5-2.3-0.8-3.4      c-0.3-1.2-0.6-2.5-0.9-3.7c-0.3-1.2-0.6-2.3-0.9-3.4c-0.3-1.2-0.6-2.4-1-3.6c-0.3-1.2-0.7-2.3-1-3.4c-0.3-1.2-0.7-2.4-1-3.5      c-0.4-1.2-0.7-2.3-1.1-3.4c-0.4-1.1-0.7-2.3-1.1-3.4c-0.4-1.2-0.8-2.3-1.2-3.4c-0.4-1.1-0.8-2.2-1.2-3.4      c-0.4-1.1-0.8-2.3-1.2-3.4c-0.4-1.1-0.8-2.2-1.2-3.3c-0.4-1.1-0.9-2.3-1.3-3.4c-0.4-1.1-0.8-2.2-1.3-3.3      c-0.4-1.1-0.9-2.2-1.4-3.4c-0.4-1.1-0.9-2.1-1.3-3.2c-0.5-1.1-1-2.2-1.4-3.3c-0.5-1.1-0.9-2.1-1.4-3.2c-0.5-1.1-1-2.2-1.5-3.3      c-0.5-1-0.9-2.1-1.4-3.1c-0.5-1.1-1-2.2-1.6-3.3c-0.5-1-1-2-1.5-3c-0.5-1.1-1.1-2.1-1.6-3.2c-0.5-1-1-2-1.5-3      c-0.5-1.1-1.1-2.1-1.6-3.2c-0.5-1-1-2-1.6-3c-0.6-1-1.1-2.1-1.7-3.1c-0.5-1-1.1-1.9-1.6-2.9c-0.6-1-1.2-2.1-1.7-3.1      c-0.5-0.9-1.1-1.9-1.6-2.8c-0.6-1-1.2-2-1.8-3c-0.6-0.9-1.1-1.9-1.7-2.8c-0.6-1-1.2-2-1.8-3c-0.6-0.9-1.1-1.9-1.7-2.8      c-0.6-1-1.2-1.9-1.8-2.9c-0.6-0.9-1.2-1.8-1.7-2.7c-0.6-1-1.2-1.9-1.9-2.9c-0.6-0.9-1.2-1.8-1.7-2.7c-0.6-0.9-1.3-1.9-1.9-2.8      c-0.6-0.9-1.2-1.8-1.8-2.6c-0.6-0.9-1.3-1.8-1.9-2.8c-0.6-0.9-1.2-1.7-1.8-2.6c-0.6-0.9-1.3-1.8-1.9-2.7      c-0.6-0.9-1.2-1.7-1.8-2.5c-0.6-0.9-1.3-1.8-1.9-2.6c-0.6-0.8-1.2-1.7-1.9-2.5c-0.6-0.9-1.3-1.7-1.9-2.5      c-0.6-0.8-1.2-1.7-1.9-2.5c-0.6-0.8-1.3-1.7-1.9-2.5c-0.6-0.8-1.2-1.6-1.9-2.4c-0.6-0.8-1.3-1.6-1.9-2.4      c-0.6-0.8-1.3-1.6-1.9-2.4c-0.6-0.8-1.2-1.6-1.9-2.3c-0.6-0.8-1.3-1.6-1.9-2.3c-0.6-0.8-1.2-1.5-1.9-2.3      c-0.6-0.8-1.3-1.5-1.9-2.3c-0.6-0.7-1.2-1.5-1.9-2.2c-0.6-0.8-1.3-1.5-1.9-2.2c-0.6-0.7-1.2-1.4-1.8-2.1      c-0.6-0.7-1.3-1.5-1.9-2.2c-0.6-0.7-1.2-1.4-1.8-2c-0.6-0.7-1.3-1.4-1.9-2.2c-0.6-0.7-1.2-1.3-1.8-2c-0.6-0.7-1.3-1.4-1.9-2.1      c-0.6-0.6-1.2-1.3-1.7-1.9c-0.6-0.7-1.3-1.4-1.9-2.1c-0.6-0.6-1.1-1.2-1.7-1.8c-0.6-0.7-1.3-1.4-1.9-2.1      c-0.5-0.6-1.1-1.2-1.6-1.7c-0.6-0.7-1.3-1.3-1.9-2c-0.5-0.6-1.1-1.1-1.6-1.7c-0.6-0.7-1.3-1.3-1.9-2c-0.5-0.5-1-1-1.5-1.5      c-0.6-0.7-1.3-1.3-1.9-1.9c-0.5-0.5-1-1-1.4-1.4c-0.6-0.6-1.3-1.3-1.9-1.9c-0.5-0.5-0.9-0.9-1.4-1.4c-0.6-0.6-1.2-1.2-1.8-1.8      c-0.5-0.4-0.9-0.9-1.4-1.3c-0.6-0.6-1.2-1.2-1.8-1.7c-0.4-0.4-0.9-0.8-1.3-1.2c-0.6-0.6-1.2-1.1-1.8-1.7      c-0.4-0.4-0.8-0.8-1.2-1.1c-0.6-0.5-1.1-1.1-1.7-1.6c-0.4-0.4-0.8-0.8-1.2-1.1c-0.6-0.5-1.1-1-1.6-1.5c-0.4-0.3-0.8-0.7-1.1-1      c-0.6-0.5-1.1-1-1.6-1.5c-0.3-0.3-0.7-0.6-1-0.9c-0.5-0.5-1.1-1-1.6-1.4c-0.3-0.3-0.6-0.6-0.9-0.8c-0.5-0.5-1-0.9-1.5-1.3      c-0.3-0.3-0.6-0.6-0.9-0.8c-0.4-0.4-0.9-0.8-1.3-1.1c-0.3-0.3-0.7-0.6-1-0.9c-0.4-0.3-0.7-0.6-1.1-0.9c-0.4-0.3-0.7-0.6-1.1-0.9      c-0.2-0.2-0.4-0.4-0.6-0.5c-7.2-6.1-11.5-9.4-11.5-9.4s-0.1,0.1-0.2,0.2c-0.3,0.4-1.2,1.3-2.4,2.8      C186.1,184.4,78.7,319,92.8,467.1c15.3,161.6,169.6,277.9,169.6,277.9s31.4-35.4,61.5-90.6c1-1.9,2.1-3.8,3.1-5.8      c0.3-0.6,0.7-1.3,1-1.9c0.7-1.3,1.4-2.6,2.1-4c0.4-0.8,0.8-1.6,1.2-2.4c0.6-1.2,1.2-2.5,1.9-3.7c0.4-0.8,0.8-1.7,1.2-2.5      c0.6-1.2,1.2-2.5,1.8-3.7c0.4-0.9,0.8-1.7,1.2-2.6c0.6-1.3,1.2-2.6,1.8-3.9c0.4-0.8,0.8-1.7,1.2-2.5c0.6-1.4,1.3-2.8,1.9-4.3      c0.3-0.7,0.7-1.5,1-2.2c0.9-2,1.7-3.9,2.6-5.9c0.1-0.2,0.2-0.5,0.3-0.7c0.9-2.2,1.9-4.5,2.8-6.8c0.2-0.6,0.5-1.2,0.7-1.8      c0.7-1.7,1.3-3.4,2-5c0.3-0.8,0.6-1.6,0.9-2.4c0.6-1.5,1.2-3.1,1.7-4.6c0.3-0.9,0.6-1.7,0.9-2.6c0.5-1.5,1.1-3.1,1.6-4.6      c0.3-0.9,0.6-1.7,0.9-2.6c0.5-1.6,1.1-3.2,1.6-4.8c0.3-0.8,0.5-1.6,0.8-2.4c0.6-1.8,1.1-3.6,1.7-5.4c0.2-0.6,0.4-1.3,0.6-1.9      c1.5-5,2.9-10.1,4.2-15.2c0-0.2,0.1-0.3,0.1-0.5c0.6-2.4,1.2-4.7,1.7-7.1c0-0.1,0.1-0.3,0.1-0.4c0.2-0.9,0.4-1.7,0.6-2.6      c0.3-1.1,0.5-2.2,0.8-3.3C370.4,531.8,370.9,529.7,371.3,527.5z"
   id="path185"
   style="fill-opacity:1;fill:url(#linearGradient1048);filter:url(#filter1544)" />
				<path
   class="st10"
   d="M337.3,527.4H-40c-33,0-64.3-10.9-69-63.9V59.8c9.2-35.3,36-63.9,69-63.9h377.3c33,0,59.8,28.6,59.8,63.9      v403.6C397,498.7,370.3,527.4,337.3,527.4z"
   id="path187" />
			</g>
		</g>
	</g>
</g>
</svg>
